<?xml version="1.0" standalone="no"?>
<!DOCTYPE svg PUBLIC "-//W3C//DTD SVG 20010904//EN"
 "http://www.w3.org/TR/2001/REC-SVG-20010904/DTD/svg10.dtd">
<svg version="1.0" xmlns="http://www.w3.org/2000/svg"
 width="666.000000pt" height="375.000000pt" viewBox="0 0 666.000000 375.000000"
 preserveAspectRatio="xMidYMid meet">

<g transform="translate(0.000000,375.000000) scale(0.100000,-0.100000)"
fill="#000000" stroke="none">
<path d="M2598 3615 c-32 -18 -53 -55 -68 -118 -6 -29 -10 -547 -11 -1448 -1
-1200 -5 -1527 -19 -1499 -1 3 -6 126 -10 273 -5 180 -11 272 -18 279 -9 9
-12 7 -13 -8 0 -10 -3 -13 -6 -6 -7 18 -23 5 -25 -21 -1 -12 -5 28 -8 88 -3
63 -7 -54 -7 -275 -1 -276 2 -395 10 -420 11 -33 14 -35 60 -36 42 -1 53 -6
90 -42 23 -22 55 -46 70 -51 18 -7 141 -11 325 -11 163 0 313 -4 332 -9 19 -4
58 -4 85 -1 l50 7 -56 2 c-60 1 -121 32 -127 63 -4 19 66 31 87 14 11 -9 13
-7 8 9 -23 76 -27 160 -29 695 l-3 585 -5 -570 c-3 -314 -8 -563 -12 -555 -3
8 -9 96 -13 195 -3 99 -7 188 -8 197 -4 21 -17 36 -17 19 0 -7 -6 -27 -14 -44
-8 -18 -17 -41 -21 -52 -12 -31 -24 42 -24 149 -1 49 -4 86 -8 83 -3 -4 -11
-3 -18 3 -8 7 -11 0 -8 -27 2 -37 -9 -64 -42 -97 -9 -9 -13 -16 -10 -16 4 0
-2 -8 -13 -17 -12 -10 -22 -27 -24 -37 -2 -11 -14 -30 -27 -44 -20 -20 -28
-22 -42 -14 -15 9 -17 7 -14 -14 2 -19 0 -22 -11 -13 -8 6 -11 16 -7 23 3 6 2
7 -3 3 -5 -5 -10 -13 -10 -18 -3 -22 -5 -23 -14 -9 -8 13 -10 13 -10 -2 0 -9
-3 -18 -7 -21 -5 -2 -2 -2 5 -1 25 6 11 -7 -18 -17 -16 -6 -30 -15 -30 -19 0
-5 -9 -7 -19 -5 -22 4 -46 -19 -36 -34 3 -6 -6 -13 -20 -17 -14 -3 -25 -10
-25 -16 0 -5 -9 -6 -21 -3 -19 6 -20 5 -9 -14 6 -12 7 -21 3 -20 -23 4 -43 -2
-38 -11 3 -6 -1 -7 -10 -4 -18 7 -75 -44 -80 -73 -2 -10 -4 -19 -4 -21 -1 -1
-7 3 -15 10 -17 16 -11 71 16 157 18 55 32 75 92 136 39 39 93 86 119 104 60
41 258 161 265 161 3 0 13 7 23 16 15 13 33 20 62 23 4 1 6 4 6 9 -7 46 15 51
24 5 2 -16 10 -41 16 -58 6 -16 13 -42 16 -57 3 -16 10 -28 17 -28 12 0 4 777
-9 845 -6 28 -14 41 -28 43 -15 2 -17 1 -6 -6 9 -7 10 -12 2 -16 -6 -4 -12
-31 -13 -59 -1 -29 -5 13 -8 93 -10 195 -10 562 0 630 4 30 8 48 9 40 2 -22
22 3 37 47 12 34 19 133 28 380 4 98 -1 107 -45 96 -20 -6 -22 -4 -16 25 7 32
51 84 63 73 4 -3 4 0 0 7 -4 7 -12 9 -18 6 -7 -5 -9 0 -6 14 4 13 0 23 -9 26
-23 9 -24 7 -14 -13 6 -10 7 -21 4 -25 -3 -3 -1 -6 5 -6 7 0 12 -5 12 -12 0
-6 -9 -3 -20 7 -11 10 -20 25 -20 33 0 9 -7 13 -20 9 -20 -5 -20 -5 1 24 23
33 20 76 -9 102 -9 9 -68 30 -131 47 -109 30 -115 31 -128 14 -7 -10 -13 -27
-13 -39 0 -12 -6 -22 -12 -22 -7 0 -17 -2 -23 -3 -5 -1 -21 -2 -35 -1 -22 1
-23 3 -7 12 9 5 17 17 17 25 0 8 -4 13 -8 10 -19 -12 -72 -16 -72 -5 0 6 -8 8
-20 4 -11 -4 -20 -2 -20 4 0 6 9 11 20 11 11 0 20 5 20 11 0 5 -4 8 -8 5 -7
-4 -92 31 -92 38 0 0 15 1 33 1 18 0 35 -6 39 -15 6 -11 7 -10 6 5 -2 36 11
52 40 48 45 -8 492 -137 527 -153 11 -5 37 -14 59 -19 59 -15 104 -51 123 -98
20 -48 39 -58 28 -15 -9 38 -50 98 -80 118 -32 21 -734 242 -790 249 -26 4
-50 0 -67 -10z m149 -83 c-9 -2 -15 -8 -12 -13 4 -5 1 -9 -4 -9 -15 0 -14 27
2 33 6 2 17 2 22 -2 6 -3 2 -7 -8 -9z m-15 -84 c-7 -7 -12 -8 -12 -2 0 6 3 14
7 17 3 4 9 5 12 2 2 -3 -1 -11 -7 -17z m-156 -34 c-3 -17 -1 -24 7 -21 8 3 13
-16 15 -65 4 -88 33 -200 72 -279 33 -66 140 -217 184 -258 14 -14 26 -30 26
-38 0 -7 5 -13 11 -13 5 0 7 -4 4 -10 -3 -5 -2 -10 3 -10 4 0 24 -13 42 -30
18 -16 37 -30 41 -30 5 0 6 -7 2 -15 -3 -9 -1 -15 4 -13 12 4 123 -111 123
-127 0 -15 -39 -40 -60 -39 -25 2 -68 23 -48 23 9 1 20 -4 23 -9 5 -8 11 -8
19 -1 7 6 15 8 18 5 3 -3 8 -2 11 3 3 5 -3 20 -14 33 -12 15 -19 19 -18 10 3
-35 -1 -43 -15 -31 -7 6 -21 9 -30 5 -12 -5 -16 0 -16 19 0 14 -7 28 -16 31
-29 11 -37 6 -20 -13 10 -10 13 -22 8 -25 -5 -3 -17 12 -27 34 -10 22 -20 38
-22 36 -3 -2 0 -13 6 -25 8 -13 8 -22 1 -26 -6 -4 -10 -3 -9 2 3 20 -2 25 -16
13 -10 -9 -15 -9 -15 -1 0 15 -17 14 -23 -1 -2 -7 -3 -5 -2 4 2 10 -1 21 -6
24 -8 5 -13 -9 -10 -28 2 -12 -27 -9 -35 3 -4 8 -9 7 -14 -2 -6 -9 -12 -9 -25
4 -18 19 -35 22 -35 7 0 -5 5 -10 10 -10 6 0 10 -5 10 -11 0 -5 -4 -8 -9 -5
-5 3 -12 -1 -15 -10 -4 -10 -2 -13 7 -8 8 5 7 2 -2 -9 -7 -9 -21 -17 -30 -17
-13 0 -13 -2 -2 -9 11 -7 9 -10 -9 -16 -18 -6 -20 -9 -9 -16 10 -6 11 -9 2 -9
-7 0 -13 -5 -13 -11 0 -5 4 -8 9 -4 5 3 12 1 16 -5 3 -5 -1 -10 -10 -10 -9 0
-13 -5 -10 -10 4 -6 12 -8 18 -4 7 3 3 -2 -7 -10 -19 -15 -19 -16 -2 -16 17 0
17 -2 2 -25 -9 -14 -12 -25 -6 -25 5 0 9 -6 7 -12 -1 -7 4 -12 11 -11 8 2 12
-9 12 -32 0 -21 5 -35 13 -35 8 0 8 -3 -2 -9 -13 -8 -12 -16 6 -53 22 -44 28
-108 10 -108 -5 0 -4 -7 3 -15 10 -12 10 -15 -1 -15 -12 0 -12 -2 -1 -9 9 -5
13 -28 13 -67 -2 -107 -8 -149 -23 -146 -10 3 -11 1 0 -9 6 -7 12 -21 12 -31
0 -10 -6 -18 -12 -19 -10 0 -10 -2 -1 -6 15 -5 6 -54 -11 -65 -8 -6 -6 -11 4
-18 10 -6 11 -13 5 -17 -6 -5 -19 -27 -30 -50 -11 -24 -26 -43 -33 -43 -7 0
-11 -4 -7 -10 3 -5 -4 -26 -15 -47 -11 -21 -20 -43 -20 -50 0 -7 -9 -22 -20
-33 -14 -14 -21 -16 -27 -7 -9 14 -16 1835 -7 1955 3 45 10 82 15 82 5 0 7
-12 5 -26z m451 -100 c-3 -3 -12 -4 -19 -1 -8 3 -5 6 6 6 11 1 17 -2 13 -5z
m119 -41 c10 -11 13 -11 17 -1 4 10 6 10 6 0 1 -7 -5 -15 -13 -18 -9 -3 -12
-12 -9 -21 4 -11 2 -14 -6 -9 -6 4 -9 16 -6 26 7 22 -5 31 -46 32 -19 1 -26 4
-17 9 17 11 60 0 74 -18z m-19 -9 c-3 -3 -12 -4 -19 -1 -8 3 -5 6 6 6 11 1 17
-2 13 -5z m78 -14 c-3 -5 -14 -10 -23 -9 -14 0 -13 2 3 9 27 11 27 11 20 0z
m-3 -45 c0 -5 -5 -10 -12 -11 -7 -2 -6 -1 1 3 8 4 7 8 -2 15 -11 8 -11 9 -1 6
8 -2 14 -8 14 -13z m-76 -741 c-7 -36 -16 -43 -16 -12 0 22 7 38 17 38 2 0 1
-12 -1 -26z m-546 -1088 c0 -3 -4 -8 -10 -11 -5 -3 -10 -1 -10 4 0 6 5 11 10
11 6 0 10 -2 10 -4z m440 -541 c7 -9 8 -15 2 -15 -5 0 -12 7 -16 15 -3 8 -4
15 -2 15 2 0 9 -7 16 -15z m-150 -95 c0 -5 -4 -10 -10 -10 -5 0 -10 5 -10 10
0 6 5 10 10 10 6 0 10 -4 10 -10z m-63 -66 c-3 -3 -12 -4 -19 -1 -8 3 -5 6 6
6 11 1 17 -2 13 -5z m-102 -44 c-3 -5 -12 -10 -18 -10 -7 0 -6 4 3 10 19 12
23 12 15 0z"/>
<path d="M2860 2600 c-11 -7 -12 -10 -2 -10 7 0 11 -4 8 -9 -3 -5 1 -11 9 -15
10 -4 14 0 12 14 -4 26 -10 31 -27 20z"/>
<path d="M2800 2564 c0 -8 5 -12 10 -9 6 3 10 10 10 16 0 5 -4 9 -10 9 -5 0
-10 -7 -10 -16z"/>
<path d="M2430 3500 c-11 -7 -16 -32 -19 -94 l-3 -85 33 9 c50 15 62 32 16 25
-29 -5 -37 -3 -37 9 0 11 9 16 29 16 24 0 29 5 35 31 3 17 6 47 6 65 0 29 -4
34 -22 34 -13 0 -30 -5 -38 -10z"/>
<path d="M2790 3450 c0 -5 7 -10 16 -10 8 0 12 5 9 10 -3 6 -10 10 -16 10 -5
0 -9 -4 -9 -10z"/>
<path d="M3496 3095 c-45 -49 -47 -148 -3 -212 60 -89 154 -62 165 47 8 90
-38 173 -105 186 -26 5 -36 1 -57 -21z"/>
<path d="M3428 2985 c-18 -18 28 -145 52 -145 11 0 6 25 -13 70 -8 19 -19 45
-24 58 -4 13 -11 20 -15 17z"/>
<path d="M2457 2963 c-4 -3 -7 -11 -7 -17 0 -6 5 -5 12 2 6 6 9 14 7 17 -3 3
-9 2 -12 -2z"/>
<path d="M3690 2857 c-19 -7 -37 -14 -40 -14 -3 -1 -20 -8 -39 -16 -24 -10
-44 -12 -70 -6 -48 11 -48 11 -48 -5 0 -8 22 -24 49 -35 28 -12 46 -15 41 -8
-5 9 -3 9 8 0 17 -14 39 0 39 23 0 7 4 15 9 18 4 3 7 -13 5 -37 l-4 -42 18 45
c10 25 23 44 29 43 6 -1 21 9 33 22 26 28 21 30 -30 12z"/>
<path d="M3741 2834 c-55 -70 -24 -216 54 -250 29 -13 29 -13 5 -13 -38 1 -63
14 -66 35 -3 25 -36 113 -52 139 -11 19 -11 18 -12 -9 0 -50 22 -110 54 -144
19 -21 24 -31 14 -27 -30 12 -20 -3 13 -21 46 -23 70 -25 96 -9 30 20 31 45 1
38 -18 -4 -16 0 9 16 72 45 64 189 -13 250 -37 29 -78 27 -103 -5z"/>
<path d="M2473 2695 c0 -22 2 -30 4 -17 2 12 2 30 0 40 -3 9 -5 -1 -4 -23z"/>
<path d="M3507 2719 c-9 -5 -24 -26 -32 -46 -53 -126 50 -283 143 -218 19 14
21 14 16 1 -13 -33 -164 -33 -190 0 -14 18 -15 18 -5 -3 6 -12 23 -31 38 -43
57 -45 166 -9 166 55 0 13 3 23 7 20 4 -3 7 30 6 73 -1 66 -5 84 -26 115 -36
52 -82 70 -123 46z"/>
<path d="M2457 2620 c-9 -11 -13 -20 -7 -20 5 0 14 9 20 20 6 11 9 20 8 20 -2
0 -11 -9 -21 -20z"/>
<path d="M3430 2590 c-6 -47 13 -104 44 -129 13 -11 16 -11 16 1 0 8 -4 18
-10 24 -5 5 -19 34 -29 64 -11 30 -20 48 -21 40z"/>
<path d="M2472 2423 c-1 -68 -6 -96 -18 -107 -8 -9 -11 -16 -5 -16 22 0 32 43
28 128 l-3 87 -2 -92z"/>
<path d="M3731 2491 c-15 -27 -14 -47 5 -82 32 -64 94 -11 70 60 -15 43 -57
56 -75 22z"/>
<path d="M3260 2145 c-3 -88 -9 -168 -14 -177 -5 -12 -4 -18 3 -18 18 0 22 39
19 200 l-3 155 -5 -160z"/>
<path d="M3225 1940 c3 -4 14 -10 25 -13 11 -3 18 -2 15 3 -3 4 -14 10 -25 13
-11 3 -18 2 -15 -3z"/>
<path d="M2440 1615 c0 -8 5 -15 10 -15 6 0 10 7 10 15 0 8 -4 15 -10 15 -5 0
-10 -7 -10 -15z"/>
<path d="M4190 451 c0 -6 4 -13 10 -16 6 -3 7 1 4 9 -7 18 -14 21 -14 7z"/>
<path d="M4170 431 c0 -10 19 -25 25 -20 1 2 -3 10 -11 17 -8 7 -14 8 -14 3z"/>
<path d="M4130 374 c0 -9 -5 -12 -12 -8 -8 5 -9 2 -4 -12 6 -16 4 -16 -17 4
-13 12 -26 19 -30 16 -4 -4 1 -13 11 -21 15 -13 14 -13 -6 -3 -13 7 -26 9 -30
6 -9 -9 0 -14 41 -20 27 -4 39 -2 43 8 3 8 15 16 26 19 11 3 17 10 13 16 -10
17 -35 13 -35 -5z"/>
</g>
</svg>
